<?xml version="1.0" encoding="UTF-8"?><svg xmlns="http://www.w3.org/2000/svg" width="461" height="461" viewBox="0 0 461 461"><defs><style>.cls-1{fill:#f2f2f2;}.cls-1,.cls-2,.cls-3,.cls-4,.cls-5,.cls-6,.cls-7,.cls-8,.cls-9,.cls-10{stroke-miterlimit:10;}.cls-1,.cls-3{stroke-width:2px;}.cls-1,.cls-3,.cls-4,.cls-5{stroke:#000;}.cls-2{stroke-width:3px;}.cls-2,.cls-3,.cls-4,.cls-6,.cls-7,.cls-8,.cls-9,.cls-10{fill:#fff;}.cls-2,.cls-6,.cls-7,.cls-8,.cls-9,.cls-10{stroke:#fff;}.cls-11{isolation:isolate;}.cls-4{mix-blend-mode:difference;}.cls-5{fill:none;}.cls-6{stroke-width:7.5px;}.cls-7{stroke-width:9px;}.cls-8{stroke-width:10.5px;}.cls-9{stroke-width:6px;}.cls-10{stroke-width:4.5px;}</style></defs><g class="cls-11"><g id="Layer_1"><rect x="10.5" y="10.5" width="440" height="440"/><ellipse class="cls-3" cx="230.5" cy="230.5" rx="151.39" ry="149.86"/><path class="cls-1" d="M230.5,369.58c-77.47,0-140.49-62.39-140.49-139.08s63.02-139.08,140.49-139.08,140.49,62.39,140.49,139.08-63.02,139.08-140.49,139.08Z"/><line class="cls-8" x1="100.36" y1="10.5" x2="100.36" y2="450.5"/><line class="cls-7" x1="152.42" y1="10.5" x2="152.42" y2="450.5"/><line class="cls-6" x1="204.47" y1="10.5" x2="204.47" y2="450.5"/><line class="cls-9" x1="256.53" y1="10.5" x2="256.53" y2="450.5"/><line class="cls-10" x1="308.58" y1="10.5" x2="308.58" y2="450.5"/><line class="cls-2" x1="360.64" y1="10.5" x2="360.64" y2="450.5"/><path class="cls-4" d="M436.13,257.05c-.11-.39-.34-.58-.67-.58h-.17c-.45.33-1.17.69-2.18,1.08-1.01.39-2.12.78-3.35,1.16-1.23.39-2.46.72-3.69,1-1.23.28-2.35.41-3.35.41-6.15,0-9.22-5.75-9.22-17.26,0-2.54.11-5.36.34-8.46.22-3.1.5-6.22.84-9.37.34-3.15.61-6.16.84-9.04.22-2.88.34-5.42.34-7.63,0-13.61-6.48-20.41-19.44-20.41-3.69,0-7.32.72-10.9,2.16-3.58,1.44-6.96,3.21-10.14,5.31-3.18,2.1-6.06,4.31-8.63,6.64-2.57,2.32-4.75,4.31-6.54,5.97-.23-7.41-1.96-12.61-5.2-15.6-3.24-2.99-7.43-4.48-12.57-4.48-3.91,0-7.63.78-11.15,2.32-3.52,1.55-6.79,3.38-9.8,5.48-3.02,2.1-5.73,4.31-8.13,6.64-2.4,2.32-4.39,4.2-5.95,5.64,0-.88.06-1.96.17-3.24.11-1.27.19-2.57.25-3.9.06-1.33.11-2.6.17-3.82.06-1.22.09-2.32.09-3.32,0-2.1-.48-3.54-1.43-4.31-.95-.77-2.09-1.16-3.44-1.16-2.01,0-4.58.69-7.71,2.07-.21.09-.4.19-.61.29-.32-.2-.67-.38-1.06-.54-1.62-.66-3.66-1-6.12-1-3.24,0-6.43.19-9.56.58-3.13.39-5.98.83-8.55,1.33-2.57.5-4.64,1.05-6.2,1.66-1.57.61-2.35,1.14-2.35,1.58,0,.55.14,1.02.42,1.41.28.39.59.58.92.58s1.09-.14,2.26-.41c1.17-.27,2.37-.41,3.6-.41,4.4,0,6.88,2.12,7.42,6.36-.07.05-.12.09-.14.11v1.16c0,.39.09.67.26.83-.02,2.63-.61,5.97-1.76,10.04-1.17,4.15-2.63,8.46-4.36,12.94-1.73,4.48-3.58,8.88-5.53,13.19-1.96,4.31-3.72,8.08-5.28,11.28-1.12-2.32-2.32-5.23-3.61-8.71-1.28-3.48-2.6-7.19-3.94-11.12-1.34-3.93-2.71-7.91-4.11-11.95-1.4-4.04-2.68-7.82-3.86-11.37-1.17-3.54-2.24-6.66-3.18-9.37-.95-2.71-1.65-4.73-2.09-6.06-.23-.88-.56-1.68-1.01-2.41-.45-.72-1.17-1.19-2.18-1.41-3.69.56-7.4,1.74-11.15,3.57-3.75,1.83-7.18,3.62-10.31,5.39-.23.22-.34.44-.34.66,0,.55.45.91,1.34,1.08.89.17,1.68.75,2.35,1.74.67,1,1.37,2.24,2.09,3.73.73,1.49,1.43,3.01,2.1,4.56.67,1.55,1.31,3.07,1.93,4.56.61,1.49,1.14,2.79,1.59,3.9-1.45,2.99-2.93,5.97-4.44,8.96-1.51,2.99-2.96,5.81-4.36,8.46-1.4,2.65-2.74,5.06-4.02,7.22-1.29,2.16-2.43,3.96-3.44,5.39-1.79-5.97-3.58-12.44-5.37-19.41-1.79-6.97-3.58-13.44-5.36-19.41-1.79-5.97-3.6-10.95-5.45-14.93-1.85-3.98-3.72-5.97-5.62-5.97-.67,0-2.15.56-4.44,1.66-2.29,1.11-4.75,2.35-7.37,3.73-2.63,1.38-5.11,2.71-7.46,3.98-1.44.78-2.56,1.4-3.37,1.87-2.38-7.82-8.47-11.74-18.3-11.74-3.69,0-7.32.72-10.9,2.16-3.58,1.44-6.96,3.21-10.14,5.31-3.18,2.1-6.06,4.31-8.63,6.64-2.57,2.32-4.75,4.31-6.54,5.97-.23-7.41-1.96-12.61-5.2-15.6-3.24-2.99-7.43-4.48-12.57-4.48-3.91,0-7.63.78-11.15,2.32-3.52,1.55-6.79,3.38-9.8,5.48-3.02,2.1-5.73,4.31-8.13,6.64-2.4,2.32-4.39,4.2-5.95,5.64,0-.88.05-1.96.17-3.24.11-1.27.19-2.57.25-3.9.06-1.33.11-2.6.17-3.82.05-1.22.08-2.32.08-3.32,0-2.1-.48-3.54-1.42-4.31-.95-.77-2.09-1.16-3.44-1.16-2.01,0-4.58.69-7.71,2.07-3.13,1.38-6.15,2.9-9.05,4.56-2.91,1.66-5.42,3.21-7.54,4.65-2.12,1.44-3.24,2.21-3.35,2.32v1.16c0,.78.34,1.11,1.01,1,.56-.11,1.14-.25,1.76-.42.61-.17,1.37-.25,2.26-.25,2.12,0,4.16,1.44,6.12,4.31,1.95,2.88,2.93,7.36,2.93,13.44s-.06,11.67-.17,16.09c-.11,4.43-.25,8.35-.42,11.78-.17,3.43-.45,6.61-.84,9.54-.39,2.93-.81,6.11-1.26,9.54-.11.44-.28.97-.5,1.58-.23.61-.34.97-.34,1.08,0,.55.53,1.05,1.59,1.49,1.06.44,2.54.66,4.44.66,1.79,0,3.97-.39,6.54-1.16,2.57-.77,5.08-1.66,7.54-2.65,2.46-1,4.64-1.96,6.54-2.9,1.9-.94,3.07-1.63,3.52-2.07.34-.22.39-.77.17-1.66-.23-.88-.62-1.22-1.17-1-.45.22-1.29.33-2.51.33s-2.24-.3-3.02-.91c-.78-.61-1.45-1.71-2.01-3.32-.56-1.6-.95-3.79-1.17-6.55-.23-2.76-.33-6.25-.33-10.45,0-3.21.11-6.06.33-8.55.22-2.49.45-4.89.67-7.22.56-5.09,1.7-9.01,3.44-11.78,1.73-2.76,3.83-5.09,6.28-6.97,1.23-.88,2.74-1.63,4.53-2.24,1.79-.61,3.8-.91,6.03-.91,3.8,0,6.79.97,8.97,2.9,2.18,1.94,3.83,4.31,4.94,7.13,1.12,2.82,1.82,5.84,2.1,9.04.28,3.21.42,6.14.42,8.79,0,5.09-.11,9.82-.34,14.19-.22,4.37-.48,8.21-.75,11.53-.28,3.32-.59,6.03-.92,8.13-.34,2.1-.67,3.43-1.01,3.98-.45.89-.67,1.66-.67,2.32,0,.55.64,1.02,1.93,1.41,1.28.39,2.71.58,4.27.58,1.23,0,3.07-.33,5.53-1,2.46-.66,4.97-1.44,7.54-2.32,2.57-.88,4.91-1.85,7.04-2.9,2.12-1.05,3.46-1.91,4.02-2.57.44-.66.5-1.27.17-1.82-.23-.33-.45-.61-.67-.83-.67.11-1.12.19-1.34.25-.23.06-.78.08-1.68.08-2.57,0-4.39-1.27-5.45-3.82-1.06-2.54-1.59-7.08-1.59-13.61,0-2.43.03-4.53.08-6.31.06-1.77.11-3.37.17-4.81.06-1.44.11-2.76.17-3.98.06-1.22.14-2.43.25-3.65.34-4.75,1.2-8.6,2.6-11.53,1.4-2.93,3.32-5.34,5.78-7.22,1.34-1,2.91-1.91,4.69-2.74,1.79-.83,3.96-1.24,6.54-1.24,2.79,0,5.25.47,7.37,1.41,2.12.94,3.91,2.57,5.37,4.89,1.45,2.32,2.57,5.45,3.35,9.37.78,3.93,1.17,8.88,1.17,14.85,0,5.09-.14,9.73-.42,13.94-.28,4.21-.53,7.91-.75,11.12-.23,2.55-.48,4.7-.75,6.47-.28,1.77-.53,3.1-.75,3.98-.23,1.44.36,2.49,1.76,3.15,1.4.66,2.88,1,4.44,1,1.79,0,4.44-.58,7.96-1.74,3.52-1.16,7.09-2.49,10.73-3.98,3.63-1.49,6.93-2.96,9.89-4.4,2.96-1.44,4.83-2.38,5.61-2.82.22-.22.45-.41.67-.58.22-.17.33-.52.33-1.08s-.06-1.02-.17-1.41c-.11-.39-.34-.58-.67-.58h-.17c-.45.33-1.17.69-2.18,1.08-1.01.39-2.12.78-3.35,1.16-1.23.39-2.46.72-3.69,1-1.23.28-2.35.41-3.35.41-6.15,0-9.22-5.75-9.22-17.26,0-2.54.11-5.36.34-8.46.22-3.1.5-6.22.84-9.37.34-3.15.61-6.16.84-9.04.22-2.88.34-5.42.34-7.63s-.17-4.02-.48-5.8c.12,0,.23,0,.36,0,.56,0,1.09.03,1.59.08.5.06,1.03.08,1.59.08,1.56,0,3.21,1.27,4.94,3.82,1.73,2.55,3.44,5.86,5.11,9.96,1.68,4.09,3.32,8.68,4.94,13.77,1.62,5.09,3.13,10.15,4.53,15.18,1.4,5.03,2.62,9.76,3.69,14.19,1.06,4.43,1.93,8.08,2.6,10.95.44,1.33,1.28,1.99,2.51,1.99.56,0,1.37-.06,2.43-.17,1.06-.11,1.76-.39,2.09-.83,1.01-1.99,2.63-4.95,4.86-8.88,2.23-3.92,4.69-8.16,7.37-12.69,2.68-4.53,5.36-9.1,8.05-13.69,2.68-4.59,4.97-8.49,6.87-11.7,1.68,3.76,3.46,7.94,5.36,12.53,1.9,4.59,3.69,9.04,5.36,13.36,1.68,4.31,3.21,8.21,4.61,11.7,1.4,3.48,2.49,6.06,3.27,7.72.56.89.89,1.52,1.01,1.91.11.39.61.58,1.51.58h2.6c1.17,0,1.87-.11,2.09-.33,1.23-2.76,3.04-6.19,5.45-10.29,2.4-4.09,5.05-8.52,7.96-13.27,2.9-4.75,5.92-9.71,9.05-14.85,3.13-5.14,6.06-10.15,8.8-15.02,1.24-2.2,2.41-4.35,3.52-6.46.66,2.45,1,5.42,1,8.95,0,6.31-.06,11.67-.17,16.09-.11,4.43-.25,8.35-.42,11.78-.17,3.43-.45,6.61-.84,9.54-.39,2.93-.81,6.11-1.26,9.54-.11.44-.28.97-.5,1.58-.23.61-.33.97-.33,1.08,0,.55.53,1.05,1.59,1.49,1.06.44,2.54.66,4.44.66,1.79,0,3.96-.39,6.54-1.16,2.57-.77,5.08-1.66,7.54-2.65,2.46-1,4.64-1.96,6.54-2.9,1.9-.94,3.07-1.63,3.52-2.07.34-.22.39-.77.17-1.66-.23-.88-.61-1.22-1.17-1-.45.22-1.29.33-2.51.33s-2.24-.3-3.02-.91c-.78-.61-1.45-1.71-2.01-3.32-.56-1.6-.95-3.79-1.17-6.55-.23-2.76-.34-6.25-.34-10.45,0-3.21.11-6.06.34-8.55.22-2.49.44-4.89.67-7.22.56-5.09,1.7-9.01,3.44-11.78,1.73-2.76,3.83-5.09,6.29-6.97,1.23-.88,2.74-1.63,4.53-2.24,1.79-.61,3.8-.91,6.03-.91,3.8,0,6.79.97,8.97,2.9,2.18,1.94,3.83,4.31,4.94,7.13,1.12,2.82,1.82,5.84,2.1,9.04.28,3.21.42,6.14.42,8.79,0,5.09-.11,9.82-.34,14.19-.22,4.37-.48,8.21-.75,11.53-.28,3.32-.59,6.03-.92,8.13-.34,2.1-.67,3.43-1.01,3.98-.45.89-.67,1.66-.67,2.32,0,.55.64,1.02,1.93,1.41,1.28.39,2.71.58,4.27.58,1.23,0,3.07-.33,5.53-1,2.46-.66,4.97-1.44,7.54-2.32,2.57-.88,4.91-1.85,7.04-2.9,2.12-1.05,3.46-1.91,4.02-2.57.44-.66.5-1.27.17-1.82-.23-.33-.45-.61-.67-.83-.67.11-1.12.19-1.34.25-.23.06-.78.08-1.68.08-2.57,0-4.39-1.27-5.45-3.82-1.07-2.54-1.59-7.08-1.59-13.61,0-2.43.03-4.53.08-6.31.06-1.77.11-3.37.17-4.81.06-1.44.11-2.76.17-3.98.06-1.22.14-2.43.25-3.65.34-4.75,1.2-8.6,2.6-11.53,1.4-2.93,3.32-5.34,5.78-7.22,1.34-1,2.91-1.91,4.69-2.74,1.79-.83,3.96-1.24,6.54-1.24,2.79,0,5.25.47,7.37,1.41,2.12.94,3.91,2.57,5.37,4.89,1.45,2.32,2.57,5.45,3.35,9.37.78,3.93,1.17,8.88,1.17,14.85,0,5.09-.14,9.73-.42,13.94-.28,4.21-.53,7.91-.75,11.12-.23,2.55-.48,4.7-.75,6.47-.28,1.77-.53,3.1-.75,3.98-.23,1.44.36,2.49,1.76,3.15,1.4.66,2.88,1,4.44,1,1.79,0,4.44-.58,7.96-1.74,3.52-1.16,7.09-2.49,10.73-3.98,3.63-1.49,6.93-2.96,9.89-4.4,2.96-1.44,4.83-2.38,5.61-2.82.22-.22.45-.41.67-.58.22-.17.33-.52.33-1.08s-.06-1.02-.17-1.41Z"/><rect class="cls-5" x=".5" y=".5" width="460" height="460"/></g></g></svg>